<?xml version="1.0" encoding="utf-8"?>
<!-- Generator: Adobe Illustrator 28.1.0, SVG Export Plug-In . SVG Version: 6.00 Build 0)  -->
<svg version="1.1" id="Calque_1" xmlns="http://www.w3.org/2000/svg" xmlns:xlink="http://www.w3.org/1999/xlink" x="0px" y="0px"
	 viewBox="0 0 36 36" style="enable-background:new 0 0 36 36;" xml:space="preserve">
<style type="text/css">
	.st0{fill:#FBDC09;}
	.st1{fill:#FBDB09;}
	.st2{fill:#D9121A;}
</style>
<path class="st0" d="M36,10.8v2.9c0,0-0.1,0-0.1,0c-11.9,0-23.9,0-35.8,0c0,0-0.1,0-0.1,0c0-1,0-1.9,0-2.9c0,0,0.1,0,0.1,0
	c11.9,0,23.9,0,35.8,0C35.9,10.8,36,10.8,36,10.8z"/>
<path class="st1" d="M36,16.6v2.9c0,0-0.1,0-0.1,0c-11.9,0-23.9,0-35.8,0c0,0-0.1,0-0.1,0c0-1,0-1.9,0-2.9c0,0,0.1,0,0.1,0
	c11.9,0,23.9,0,35.8,0C35.9,16.6,36,16.6,36,16.6z"/>
<path class="st0" d="M0,25.2c0-1,0-1.9,0-2.9c0,0,0.1,0,0.1,0c11.9,0,23.9,0,35.8,0c0,0,0.1,0,0.1,0v2.9c0,0-0.1,0-0.1,0
	c-11.9,0-23.9,0-35.8,0C0.1,25.2,0,25.2,0,25.2z"/>
<path class="st2" d="M36,16.6c0,0-0.1,0-0.1,0c-11.9,0-23.9,0-35.8,0c0,0-0.1,0-0.1,0c0-1,0-1.9,0-2.9c0,0,0.1,0,0.1,0
	c11.9,0,23.9,0,35.8,0c0,0,0.1,0,0.1,0V16.6z"/>
<path class="st2" d="M36,22.3c0,0-0.1,0-0.1,0c-11.9,0-23.9,0-35.8,0c0,0-0.1,0-0.1,0c0-1,0-1.9,0-2.9c0,0,0.1,0,0.1,0
	c11.9,0,23.9,0,35.8,0c0,0,0.1,0,0.1,0L36,22.3L36,22.3z"/>
<path class="st2" d="M36,10.8c0,0-0.1,0-0.1,0c-11.9,0-23.9,0-35.8,0c0,0-0.1,0-0.1,0c0-0.7,0-1.4,0-2.1c0,0,0-0.1,0-0.1
	c0-0.1,0-0.1,0-0.2c0-0.2,0.1-0.3,0.1-0.5c0,0,0.1,0,0.1,0c11.8,0,23.6,0,35.5,0c0,0,0.1,0,0.1,0c0,0.2,0.1,0.4,0.1,0.6
	c0,0.1,0,0.1,0,0.2V10.8L36,10.8z"/>
<path class="st2" d="M0,25.2c0,0,0.1,0,0.1,0c11.9,0,23.9,0,35.8,0c0,0,0.1,0,0.1,0v2.1c0,0.1,0,0.2,0,0.3c0,0.1-0.1,0.3-0.1,0.4
	c0,0-0.1,0-0.1,0c-11.8,0-23.6,0-35.4,0c0,0-0.1,0-0.1,0c0-0.2-0.1-0.4-0.1-0.5c0-0.1,0-0.1,0-0.2C0,26.7,0,26,0,25.2z"/>
<path class="st0" d="M35.9,7.9c0,0-0.1,0-0.1,0c-11.8,0-23.6,0-35.5,0c0,0-0.1,0-0.1,0c0.1-0.2,0.1-0.4,0.2-0.6
	C0.5,7,0.7,6.8,0.9,6.5C1.1,6.3,1.3,6,1.5,5.9c0.3-0.2,0.5-0.4,0.9-0.5C2.7,5.2,3.1,5.1,3.5,5c0.1,0,0.2,0,0.2,0c9.5,0,19,0,28.5,0
	c0,0,0,0,0,0c0.3,0,0.6,0.1,0.9,0.2c0.4,0.1,0.7,0.3,1.1,0.5c0.3,0.2,0.6,0.5,0.8,0.8c0.2,0.2,0.3,0.4,0.4,0.6
	C35.7,7.3,35.7,7.6,35.9,7.9L35.9,7.9z"/>
<path class="st0" d="M0.2,28.1c0,0,0.1,0,0.1,0c11.8,0,23.6,0,35.4,0c0,0,0.1,0,0.1,0c-0.1,0.2-0.1,0.4-0.2,0.5
	c-0.1,0.3-0.3,0.5-0.5,0.8c-0.2,0.2-0.4,0.5-0.6,0.6c-0.3,0.2-0.5,0.4-0.9,0.5c-0.4,0.2-0.7,0.3-1.1,0.3c-0.1,0-0.2,0-0.2,0H3.7
	c0,0,0,0,0,0c-0.1,0-0.2,0-0.4,0c-0.4-0.1-0.8-0.2-1.2-0.4c-0.4-0.2-0.7-0.5-1-0.8c-0.3-0.3-0.5-0.7-0.7-1.1
	C0.3,28.5,0.2,28.3,0.2,28.1L0.2,28.1z"/>
</svg>
