<svg xmlns="http://www.w3.org/2000/svg" width="301.296" height="131.048" viewBox="0 0 79.718 34.673"><path fill="#a1a0a4" d="M76.755 31.364h.734l.738 2.448.749-2.448h.74v3.06h-.485v-2.529l-.761 2.528h-.5l-.747-2.528v2.528h-.468zm-2.762 0h2.395v.451h-.94v2.608h-.511v-2.608h-.944zM39.603 1.896l-6.12 23.996S28.803 7.88 28.042 5.325c-.762-2.559-2.329-3.68-4.55-3.68-2.224 0-3.793 1.12-4.554 3.68-.758 2.555-5.44 20.567-5.44 20.567L7.375 1.896H-.001s7.083 25.602 8.046 28.568c.749 2.314 2.523 4.206 5.153 4.206 3.007 0 4.413-2.192 5.064-4.206.645-2.002 5.23-18.912 5.23-18.912s4.584 16.91 5.227 18.912c.65 2.014 2.057 4.206 5.063 4.206 2.632 0 4.403-1.892 5.157-4.206.96-2.965 8.038-28.568 8.038-28.568zM64.89 34.423h6.982V11.84H64.89zm-.676-30.479c0 2.177 1.836 3.943 4.09 3.943 2.347 0 4.184-1.73 4.184-3.943 0-2.214-1.837-3.948-4.183-3.948-2.255 0-4.091 1.77-4.091 3.948m-13.51 30.479h6.98V11.84h-6.98zm-.679-30.479c0 2.177 1.833 3.943 4.089 3.943 2.344 0 4.185-1.73 4.185-3.943 0-2.214-1.84-3.948-4.185-3.948-2.256 0-4.089 1.77-4.089 3.948"/></svg>