<?xml version="1.0" encoding="UTF-8"?>
<svg id="Calque_1" data-name="Calque 1" xmlns="http://www.w3.org/2000/svg" viewBox="0 0 404.06 402.52">
  <defs>
    <style>
      .cls-1 {
        fill: #fbd6a7;
      }

      .cls-1, .cls-2, .cls-3, .cls-4, .cls-5, .cls-6, .cls-7, .cls-8 {
        stroke-width: 0px;
      }

      .cls-2 {
        fill: #020202;
      }

      .cls-3 {
        fill: #1a1311;
      }

      .cls-4 {
        fill: #ed0c0b;
      }

      .cls-5 {
        fill: #ed0b0a;
      }

      .cls-6 {
        fill: #fefdfd;
      }

      .cls-7 {
        fill: #e55556;
      }

      .cls-8 {
        fill: #fefafa;
      }
    </style>
  </defs>
  <path class="cls-3" d="M62.81,59.78c1.76-1.74,3.52-3.48,5.28-5.21.19-.19.37-.37.56-.56.17-.15.34-.3.51-.46.18-.15.36-.31.54-.46,0,0-.03.02-.03.02.15-.14.31-.27.46-.41,0,0-.02.02-.02.02.15-.14.3-.28.46-.41,0,0-.02.02-.02.02.15-.14.3-.28.45-.41,0,0-.01.01-.01.01.15-.14.29-.27.44-.41,0,0-.02.02-.02.02.16-.15.33-.3.49-.44.26-.24.51-.48.77-.72.32-.3.64-.59.96-.89,10.41-9.02,21.51-17.07,33.52-23.85,18.86-10.64,38.91-17.96,60.19-21.99,11.91-2.25,23.9-3.85,36.01-3.63,25.7.47,50.45,5.69,74.08,15.88,37.22,16.04,66.45,41.64,88.92,75.11,16.85,25.09,28.32,52.47,34.04,82.21,3.14,16.3,4.38,32.72,3.27,49.3-2.8,41.66-22.26,73.33-57.4,95.51-6.48,4.09-13.57,6.97-20.89,9.23-1.22.38-1.73.83-1.92,2.18-1.42,10.2-3.86,20.13-8.3,29.48-7.82,16.48-20.32,27.47-37.88,32.8-13.34,4.05-26.86,7.19-40.67,9.06-13.27,1.8-26.61,1.77-39.97,1.76-11.57,0-23.09-.48-34.55-2.11-15.17-2.16-30.07-5.49-44.34-11.15-17.09-6.77-28.31-19.41-35.13-36.21-3.28-8.08-5.17-16.54-6.24-25.17-.13-1.06-.48-1.5-1.45-1.85-35.62-13-58.55-38.04-69.71-74.01C1.49,240.01.08,227.55,0,215.03c-.32-50.78,15.74-96.06,46.37-136.35.45-.59.79-1.26,1.19-1.89,1.27-1.4,2.56-2.79,3.81-4.2,3.64-4.12,7.27-8.26,10.9-12.39,0,0-.02.02-.02.02.19-.15.37-.29.56-.44ZM167.69,19.18c-.51.11-1.03.2-1.54.34-8.05,2.31-16.09,4.63-24.14,6.95-10.07,3.52-19.62,8.12-28.87,13.42-12.35,7.06-23.75,15.45-33.91,25.35-7.14,6.95-13.77,14.49-20.14,22.17-8.15,9.82-15.03,20.57-20.73,31.99-3.81,7.62-7,15.54-10.47,23.33-1.34,4.05-2.78,8.07-4,12.16-1.14,3.83-2.05,7.72-3.07,11.59-1.27,6.29-2.59,12.57-3.78,18.88-.55,2.93-.82,5.91-1.21,8.86-.16,2.12-.46,4.23-.45,6.34.05,10.16-.66,20.35,1.23,30.42,1.19,6.34,2.11,12.79,3.98,18.95,4.06,13.37,10.97,25.29,20.28,35.72,5.34,5.98,11.32,11.34,18.13,15.59,4.35,2.72,9.07,4.87,13.62,7.27.89.45,1.78.9,2.82,1.42.19-2.97.27-5.65.57-8.3.23-2.01.16-4.4,1.23-5.9,5.28-7.38,11.87-13.5,19.26-18.78,9.2-6.58,19.18-11.67,29.71-15.74,13-5.02,26.44-8.29,40.19-10.38,2.62-.4,5.23-.84,7.85-1.26.35,0,.69.05,1.04.02,5.1-.41,10.19-1.12,15.29-1.17,11.4-.13,22.81-.48,34.16,1.16,4.63.67,9.33.9,13.92,1.76,10.69,2.01,21.26,4.52,31.48,8.31,9.02,3.34,17.75,7.29,25.9,12.4,3.93,2.47,7.69,5.21,11.53,7.83.27.31.53.63.82.92,4.24,4.12,8.54,8.2,12.7,12.4,1.13,1.14,2.29,2.55,2.68,4.04.55,2.09.45,4.36.51,6.56.07,2.38.02,4.77.02,7.12.79.07,1.02.16,1.19.09,2.39-1.02,4.83-1.95,7.15-3.11,13.99-7.06,25.45-17.08,34.98-29.49,13.51-17.59,20.29-37.52,20.98-59.54.31-9.9.49-19.84-1.18-29.67-1.19-6.97-2.05-14.04-3.78-20.88-2.24-8.83-5.05-17.53-7.93-26.17-1.41-4.24-3.55-8.24-5.35-12.35l-1.69-3.78c-2.89-5.5-5.6-11.1-8.71-16.47-8.01-13.85-17.61-26.56-28.8-37.96-6.25-6.37-13.09-12.2-19.97-17.92-4.3-3.57-9.15-6.47-13.75-9.67-1.17-.78-2.32-1.58-3.51-2.33-10.16-6.37-20.91-11.54-32.22-15.45-6.83-2.36-13.85-4.16-20.78-6.21-1.07-.22-2.13-.5-3.21-.65-9.62-1.34-19.22-3.11-28.89-3.84-6.82-.52-13.78.09-20.63.73-6.87.64-13.67,1.93-20.5,2.93ZM200.58,386.81c3.67,0,7.33.01,11,0,20.45-.08,40.44-2.92,59.97-9.24,17.69-5.73,29.71-17.05,36.04-34.45,4.78-13.14,5.84-26.81,5.48-40.65-.02-.76-.62-1.65-1.2-2.23-7.12-7.19-15.38-12.82-24.32-17.47-24.77-12.87-51.4-18.25-79.04-19.4-13.5-.56-26.97.15-40.36,1.99-16.84,2.31-33.23,6.29-48.79,13.29-11.57,5.21-22.2,11.82-30.81,21.31-.64.7-1.19,1.79-1.2,2.7-.17,13.42,1.09,26.66,5.77,39.37,5.11,13.87,13.52,25.06,27.14,31.53,12.39,5.89,25.65,8.88,39.14,11.02,13.65,2.17,27.41,2.27,41.18,2.23Z"/>
  <path class="cls-7" d="M73.62,49.47c-.32.3-.64.59-.96.89.32-.3.64-.59.96-.89Z"/>
  <path class="cls-7" d="M71.89,51.08c-.16.15-.33.3-.49.44.16-.15.33-.3.49-.44Z"/>
  <path class="cls-7" d="M71.42,51.51c-.15.14-.29.27-.44.41.15-.14.29-.27.44-.41Z"/>
  <path class="cls-7" d="M70.99,51.91c-.15.14-.3.28-.45.41.15-.14.3-.28.45-.41Z"/>
  <path class="cls-7" d="M70.57,52.3c-.15.14-.3.28-.46.41.15-.14.3-.28.46-.41Z"/>
  <path class="cls-7" d="M70.13,52.7c-.15.14-.31.27-.46.41.15-.14.31-.27.46-.41Z"/>
  <path class="cls-7" d="M69.7,53.09c-.18.15-.36.31-.54.46.18-.15.36-.31.54-.46Z"/>
  <path class="cls-7" d="M68.65,54c-.19.19-.37.37-.56.56.19-.19.37-.37.56-.56Z"/>
  <path class="cls-7" d="M62.81,59.78c-.19.15-.37.29-.56.44.19-.15.37-.29.56-.44Z"/>
  <path class="cls-1" d="M200.58,386.81c-13.77.04-27.53-.07-41.18-2.23-13.48-2.14-26.75-5.13-39.14-11.02-13.62-6.47-22.03-17.66-27.14-31.53-4.68-12.7-5.93-25.95-5.77-39.37.01-.91.56-2,1.2-2.7,8.61-9.48,19.24-16.1,30.81-21.31,15.56-7,31.94-10.99,48.79-13.29,13.4-1.83,26.86-2.55,40.36-1.99,27.63,1.14,54.27,6.52,79.04,19.4,8.94,4.65,17.2,10.29,24.32,17.47.58.58,1.18,1.47,1.2,2.23.35,13.84-.7,27.51-5.48,40.65-6.33,17.4-18.35,28.72-36.04,34.45-19.53,6.33-39.52,9.17-59.97,9.24-3.67.01-7.33,0-11,0ZM170.75,312.1l-.95-.05c0-5.18.31-10.39-.1-15.54-.32-4.01-1.16-8.08-2.49-11.87-1.47-4.2-5.47-5.8-9.24-3.92-1.84.92-3.74,2.63-4.59,4.46-1.45,3.14-2.53,6.6-3.01,10.03-1.68,11.96-1.5,24.01-.31,35.99.42,4.18,1.81,8.33,3.24,12.32.99,2.75,3.44,4.32,6.51,4.34,3.11.02,5.24-1.72,6.47-4.4.96-2.12,1.97-4.36,2.22-6.63.92-8.22,1.53-16.48,2.26-24.72ZM234.22,310.98c.45,7.88.71,14.57,1.25,21.25.34,4.2,1.17,8.37,3.44,12.04,2.95,4.75,8.88,4.88,11.97.22,1.05-1.58,1.95-3.41,2.33-5.25.84-4.04,1.63-8.15,1.85-12.26.61-11.25.94-22.52-.96-33.7-.6-3.56-1.54-7.03-3.8-9.95-3.8-4.92-10.31-4.23-12.87,1.41-.73,1.61-1.39,3.37-1.55,5.12-.69,7.42-1.18,14.85-1.65,21.14Z"/>
  <path class="cls-5" d="M297.43,44.01c4.6,3.2,9.46,6.1,13.75,9.67,6.88,5.71,13.72,11.55,19.97,17.92,11.19,11.4,20.79,24.12,28.8,37.96,3.11,5.37,5.82,10.97,8.71,16.47-4.41-1.37-8.98-2.36-13.18-4.2-10.89-4.78-21.9-4.57-33.08-1.56-3.76,1.01-7.45,2.28-11.28,3.47,1.98,2.46,4.96,4.74,8.8,6.2,16.81,6.36,33.64,7.24,50.43-.14,1.81,4.11,3.94,8.11,5.35,12.35,2.88,8.65,5.69,17.35,7.93,26.17,1.73,6.84,2.59,13.9,3.78,20.88,1.68,9.83,1.49,19.78,1.18,29.67-.69,22.02-7.47,41.95-20.98,59.54-9.53,12.41-20.99,22.43-34.98,29.49-2.32,1.17-4.76,2.1-7.15,3.11-.17.07-.4-.02-1.19-.09,0-2.35.06-4.74-.02-7.12-.07-2.2.03-4.47-.51-6.56-.39-1.49-1.55-2.9-2.68-4.04-4.16-4.2-8.46-8.27-12.7-12.4-.29-.29-.55-.61-.82-.92.05-6.3,1.38-12.29,3.83-18.11.73-1.73.85-3.96.53-5.83-.39-2.26-1.47-4.43-2.38-6.58-1.5-3.55-3.11-7.06-4.66-10.59-2.22-5.05-4.33-10.14-6.67-15.13-1.26-2.68-3.37-4.7-6.04-6.08,1.42-3.6,2.96-7.15,4.22-10.8,4.28-12.42,5.41-25.21,4.15-38.24-1.02-10.63-3.44-20.85-8.95-30.15-1.09-1.83-3.04-3.57-3.16-5.44-.12-1.88,1.59-3.86,2.41-5.84,2.91-6.93.33-13.73-6.44-17.06-1.22-.6-2.47-1.14-3.92-1.81,5.18-3.71,6.27-8.69,5.78-14.56-.68-8.19-.87-16.43-1.26-24.64.59.36,1.15.76,1.77,1.06,3.65,1.83,7.95.72,10.89-2.79,2.57-3.05,2.54-6.27-.05-9.79-.69-.94-1.36-1.91-1.95-2.92-1.2-2.03-1.9-4.26-.98-6.51.61-1.48,1.8-2.72,2.73-4.07Z"/>
  <path class="cls-4" d="M15.82,194.22c.4-2.96.66-5.94,1.21-8.86,1.18-6.31,2.51-12.59,3.78-18.88.87,0,1.75,0,2.83,0-1.18,4.99.82,8.92,3.21,12.7,1.22,1.92,2.59,3.75,3.92,5.61,2.95,4.14,5.45,8.4,5.65,13.76.13,3.47,2.17,5.18,5.7,4.69,3.17-.43,6.49-1.13,9.31-2.56,9.92-5.06,20.25-5.51,30.68-2.75,7.45,1.97,14.63,4.93,21.93,7.45,5.54,18.68,18.09,29.66,36.98,33.66,7.29,1.54,14.68,1.56,22.08,1.35,1.23.41,2.48.75,3.68,1.24,3.68,1.52,6.46,3.92,7.47,7.96-2.62.42-5.23.86-7.85,1.26-13.75,2.09-27.19,5.37-40.19,10.38-10.54,4.07-20.51,9.15-29.71,15.74-7.39,5.28-13.98,11.4-19.26,18.78-1.07,1.5-1,3.9-1.23,5.9-.3,2.65-.38,5.33-.57,8.3-1.04-.52-1.93-.97-2.82-1.42-.16-1.09-.3-2.18-.47-3.27-1.78-10.83-6.48-19.84-15.23-26.91-5.44-4.39-10.27-9.63-14.93-14.89-4.3-4.86-7.25-10.61-7.9-17.25-.76-7.81,2.21-14.42,6.66-20.61,1.83-2.56,3.45-5.35,4.69-8.24,1.97-4.59.41-7.23-4.33-8.82-3.32-1.11-6.71-2.31-9.7-4.09-5.34-3.16-10.4-6.79-15.57-10.22Z"/>
  <path class="cls-6" d="M104.04,205.37c-7.3-2.52-14.49-5.48-21.93-7.45-10.43-2.77-20.76-2.32-30.68,2.75-2.82,1.44-6.14,2.13-9.31,2.56-3.54.48-5.57-1.22-5.7-4.69-.2-5.35-2.7-9.61-5.65-13.76-1.32-1.86-2.7-3.68-3.92-5.61-2.39-3.78-4.39-7.71-3.21-12.7-1.08,0-1.95,0-2.83,0,1.01-3.87,1.92-7.76,3.07-11.59,1.22-4.09,2.66-8.11,4-12.16,6.96,1.26,11.51,5.51,14.63,12.12.45-.96.74-1.61,1.06-2.25,1.95-3.88,3.69-7.89,5.89-11.63,7.49-12.7,18.17-22.3,30.22-30.54,6.89-4.72,13.69-9.57,20.51-14.39,3.16-2.23,6.27-4.52,9.41-6.78.28,4.48.63,8.96.83,13.45.36,8.1,5.91,13.35,13.99,13.07,4.63-.16,9.26-.4,13.89-.58,1.05-.04,2.1,0,3.52,0-.98.7-1.64,1.18-2.31,1.65-6.97,4.83-13.31,10.37-18.67,16.95-17.18,21.13-23.13,44.93-16.78,71.59Z"/>
  <path class="cls-4" d="M109.58,89.25c-3.13,2.26-6.25,4.55-9.41,6.78-6.82,4.82-13.62,9.68-20.51,14.39-12.05,8.24-22.72,17.84-30.22,30.54-2.2,3.73-3.95,7.74-5.89,11.63-.32.64-.61,1.29-1.06,2.25-3.12-6.61-7.67-10.86-14.63-12.12,3.47-7.79,6.67-15.71,10.47-23.33,5.7-11.42,12.58-22.17,20.73-31.99,6.37-7.68,13-15.21,20.14-22.17,10.16-9.89,21.57-18.28,33.91-25.35,9.25-5.29,18.8-9.9,28.87-13.42.5,1.42,1.13,2.81,1.46,4.27.96,4.21,1.15,8.42-2.87,11.23-3.09,2.16-6.42,4.02-9.81,5.68-2.34,1.14-4.98,1.64-7.43,2.57-.68.26-1.15,1.03-1.72,1.57.52.46.96,1.14,1.57,1.36,4.31,1.52,7.71,4.23,10.54,7.75-3.93.18-7.85.39-11.78.52-8.36.27-13.67,6.41-12.97,14.8.36,4.32.39,8.68.57,13.02Z"/>
  <path class="cls-6" d="M174.24,249.57c-1.01-4.04-3.78-6.44-7.47-7.96-1.19-.49-2.45-.83-3.68-1.24.75-.11,1.49-.25,2.24-.31,9.54-.82,18.83-2.77,27.83-6.06,11.9-4.34,22.76-10.55,32.85-18.17.78-.59,1.57-1.16,2.56-1.88.23,6.4,3.25,10.41,8.7,12.59,9.92,3.97,19.86,7.9,29.83,11.77,6.4,2.48,12.41.59,16.03-5.21,3.17-5.08,6.04-10.36,9.05-15.55,2.67,1.38,4.78,3.4,6.04,6.08,2.34,4.99,4.45,10.08,6.67,15.13,1.55,3.53,3.16,7.04,4.66,10.59.91,2.15,2,4.32,2.38,6.58.32,1.88.2,4.1-.53,5.83-2.45,5.82-3.78,11.82-3.83,18.11-3.84-2.62-7.59-5.37-11.53-7.83-8.15-5.11-16.89-9.06-25.9-12.4-10.23-3.79-20.8-6.3-31.48-8.31-4.59-.86-9.29-1.09-13.92-1.76-11.35-1.64-22.77-1.29-34.16-1.16-5.1.06-10.19.77-15.29,1.17-.34.03-.69-.01-1.04-.02Z"/>
  <path class="cls-6" d="M297.43,44.01c-.93,1.35-2.13,2.59-2.73,4.07-.93,2.25-.22,4.48.98,6.51.6,1.01,1.26,1.97,1.95,2.92,2.59,3.52,2.61,6.73.05,9.79-2.95,3.5-7.24,4.61-10.89,2.79-.61-.31-1.18-.71-1.77-1.06-.47-9.32-7.11-13.46-13.68-13.22-19.68.7-39.36,1.48-59.04,2.18-3.7.13-7.4.02-11.31.02.1-6.35.78-13.05-5.36-17.62,1.67-.82,3.28-1.85,5.03-2.42,6.3-2.08,12.62-4.09,18.98-5.96,8.03-2.36,15.26-6.07,21.28-11.97,6.93,2.05,13.96,3.85,20.78,6.21,11.31,3.92,22.07,9.08,32.22,15.45,1.19.75,2.34,1.55,3.51,2.33Z"/>
  <path class="cls-6" d="M15.82,194.22c5.18,3.43,10.24,7.06,15.57,10.22,2.99,1.77,6.38,2.97,9.7,4.09,4.74,1.59,6.31,4.23,4.33,8.82-1.24,2.89-2.85,5.68-4.69,8.24-4.44,6.19-7.41,12.8-6.66,20.61.64,6.64,3.59,12.39,7.9,17.25,4.66,5.26,9.49,10.49,14.93,14.89,8.75,7.07,13.45,16.08,15.23,26.91.18,1.09.32,2.18.47,3.27-4.55-2.4-9.27-4.55-13.62-7.27-6.81-4.26-12.79-9.61-18.13-15.59-9.31-10.43-16.22-22.35-20.28-35.72-1.87-6.15-2.79-12.6-3.98-18.95-1.89-10.07-1.18-20.27-1.23-30.42-.01-2.11.29-4.23.45-6.34Z"/>
  <path class="cls-4" d="M240.92,20.01c-6.02,5.9-13.25,9.61-21.28,11.97-6.36,1.87-12.68,3.88-18.98,5.96-1.75.58-3.36,1.6-5.03,2.42-2.92-1.79-6.1-2.33-9.51-2.19-7.16.3-14.34.44-21.5.65.5-1.35.99-2.7,1.52-4.04,1.97-5.06,3.59-10.14,1.55-15.6,6.83-1,13.64-2.29,20.5-2.93,6.85-.63,13.8-1.24,20.63-.73,9.67.73,19.26,2.5,28.89,3.84,1.08.15,2.14.43,3.21.65Z"/>
  <path class="cls-8" d="M370.35,129.8c-16.79,7.38-33.62,6.49-50.43.14-3.85-1.45-6.83-3.74-8.8-6.2,3.84-1.19,7.52-2.46,11.28-3.47,11.17-3.01,22.18-3.22,33.08,1.56,4.2,1.84,8.78,2.82,13.18,4.2.56,1.26,1.13,2.52,1.69,3.78Z"/>
  <path class="cls-8" d="M167.69,19.18c2.04,5.45.42,10.54-1.55,15.6-.52,1.34-1.01,2.69-1.52,4.04-2.96.11-5.93.2-8.89.34-8.36.41-13.29,5.64-13.25,14.01.01,2.45,0,4.91,0,7.75h-8.72c-2.83-3.52-6.23-6.23-10.54-7.75-.61-.21-1.05-.89-1.57-1.36.57-.54,1.05-1.32,1.72-1.57,2.45-.93,5.1-1.42,7.43-2.57,3.39-1.66,6.72-3.52,9.81-5.68,4.02-2.81,3.83-7.02,2.87-11.23-.33-1.46-.97-2.85-1.46-4.27,8.04-2.32,16.09-4.64,24.14-6.95.5-.14,1.03-.23,1.54-.34Z"/>
  <path class="cls-3" d="M170.75,312.1c-.73,8.24-1.34,16.5-2.26,24.72-.25,2.27-1.25,4.51-2.22,6.63-1.22,2.69-3.36,4.42-6.47,4.4-3.07-.02-5.52-1.58-6.51-4.34-1.43-3.99-2.82-8.14-3.24-12.32-1.19-11.98-1.36-24.03.31-35.99.48-3.43,1.56-6.88,3.01-10.03.85-1.83,2.74-3.54,4.59-4.46,3.77-1.88,7.76-.28,9.24,3.92,1.33,3.79,2.16,7.86,2.49,11.87.41,5.15.1,10.36.1,15.54l.95.05ZM165.75,295.47c-.47-2.59-.73-4.86-1.31-7.04-.67-2.51-2.24-3.93-4.03-3.85-2.27.1-3.45,1.68-4.08,3.59-1.64,5-1.59,10.05.05,15.05.6,1.82,1.77,3.19,3.86,3.22,2.11.03,3.37-1.33,3.87-3.16.72-2.64,1.14-5.36,1.63-7.8Z"/>
  <path class="cls-3" d="M234.22,310.98c.48-6.29.97-13.73,1.65-21.14.16-1.74.82-3.5,1.55-5.12,2.56-5.64,9.07-6.33,12.87-1.41,2.26,2.93,3.2,6.4,3.8,9.95,1.89,11.18,1.56,22.46.96,33.7-.22,4.11-1.01,8.21-1.85,12.26-.38,1.84-1.28,3.67-2.33,5.25-3.09,4.66-9.02,4.53-11.97-.22-2.28-3.67-3.11-7.83-3.44-12.04-.54-6.67-.8-13.37-1.25-21.25ZM249.93,295.54c-.55-2.6-.94-5.27-1.72-7.81-.54-1.77-1.85-3.2-3.94-3.13-2.06.06-3.23,1.52-3.82,3.31-1.69,5.15-1.62,10.33.17,15.44.6,1.71,1.74,3.05,3.74,3.09,2.09.04,3.4-1.25,3.92-3.1.7-2.5,1.09-5.09,1.64-7.8Z"/>
  <path class="cls-2" d="M133.75,60.92h8.72c0-2.84,0-5.3,0-7.75-.04-8.37,4.89-13.6,13.25-14.01,2.96-.15,5.93-.23,8.89-.34,7.17-.21,14.34-.35,21.5-.65,3.41-.14,6.58.4,9.51,2.19,6.14,4.57,5.45,11.27,5.36,17.62,3.91,0,7.62.11,11.31-.02,19.68-.7,39.36-1.48,59.04-2.18,6.57-.23,13.21,3.9,13.68,13.22.4,8.22.58,16.45,1.26,24.64.49,5.88-.6,10.85-5.78,14.56,1.45.67,2.7,1.21,3.92,1.81,6.77,3.33,9.34,10.13,6.44,17.06-.83,1.97-2.54,3.95-2.41,5.84.12,1.87,2.07,3.61,3.16,5.44,5.52,9.29,7.93,19.52,8.95,30.15,1.26,13.03.12,25.82-4.15,38.24-1.26,3.65-2.81,7.2-4.22,10.8-3,5.19-5.87,10.46-9.05,15.55-3.62,5.8-9.62,7.7-16.03,5.21-9.96-3.86-19.9-7.8-29.83-11.77-5.45-2.18-8.47-6.2-8.7-12.59-.99.72-1.78,1.29-2.56,1.88-10.09,7.62-20.95,13.83-32.85,18.17-9,3.29-18.29,5.24-27.83,6.06-.75.06-1.49.21-2.24.31-7.4.21-14.79.2-22.08-1.35-18.9-4-31.45-14.98-36.98-33.66-6.35-26.66-.4-50.45,16.78-71.59,5.36-6.59,11.7-12.12,18.67-16.95.67-.46,1.33-.94,2.31-1.65-1.41,0-2.47-.04-3.52,0-4.63.18-9.26.42-13.89.58-8.09.28-13.64-4.97-13.99-13.07-.2-4.49-.55-8.97-.83-13.45-.18-4.34-.21-8.69-.57-13.02-.7-8.38,4.61-14.52,12.97-14.8,3.93-.13,7.85-.34,11.78-.52ZM256.28,165.69c1.65,5.96,1.51,12.02.53,18.05-1.6,9.78-6.35,18.17-12.01,26.12-1.1,1.55-2.27,3.05-3.48,4.69,10.45,4.13,20.64,8.15,30.87,12.19,5.22-7.4,9.23-15.31,12.18-23.77,4.4-12.64,4.82-25.59,2.91-38.69-1.28-8.79-4.21-16.99-9.68-24.12-1.45-1.9-3.07-3.67-4.53-5.41,2.17-4.38,4.27-8.63,6.45-13.04-9.52-4.21-18.81-8.32-28.18-12.46-1.28,2.87-2.5,5.63-3.76,8.48-9.17-3.62-18.5-5.74-28.09-6.68-9.58-.94-19.17-1-29.06.11v-10.45c27.66-1.08,55.42-2.17,83.34-3.26-.51-9.77-1.02-19.33-1.53-28.99-27.95,1.02-55.65,2.03-83.73,3.06v-20.72c-11.33.38-22.28.74-33.02,1.1v20.93c-11.17.43-22.47.87-33.89,1.31.52,9.75,1.02,19.27,1.53,28.98,11.47-.43,22.77-.86,34.22-1.29.35,6.01.72,11.87.96,17.73.02.5-.73,1.17-1.27,1.53-5.5,3.67-11.47,6.77-16.49,11.01-19.77,16.71-29.04,37.87-25.53,63.94,1.17,8.7,4.48,16.51,11.26,22.46,6.79,5.97,15.01,8.39,23.78,9.02,19.35,1.39,37.41-3.06,54.27-12.53,13.65-7.66,25.42-17.66,35.71-29.37,5.6-6.37,10.74-13.15,16.25-19.93Z"/>
  <path class="cls-8" d="M165.75,295.47c-.49,2.43-.91,5.16-1.63,7.8-.5,1.83-1.76,3.19-3.87,3.16-2.09-.03-3.27-1.4-3.86-3.22-1.64-5-1.7-10.05-.05-15.05.63-1.91,1.81-3.49,4.08-3.59,1.79-.08,3.36,1.35,4.03,3.85.58,2.18.84,4.45,1.31,7.04Z"/>
  <path class="cls-8" d="M249.93,295.54c-.55,2.71-.94,5.3-1.64,7.8-.51,1.84-1.82,3.14-3.92,3.1-2-.04-3.14-1.38-3.74-3.09-1.8-5.11-1.86-10.29-.17-15.44.59-1.79,1.75-3.25,3.82-3.31,2.08-.06,3.4,1.37,3.94,3.13.78,2.54,1.17,5.21,1.72,7.81Z"/>
  <path class="cls-6" d="M256.28,165.69c-5.51,6.79-10.65,13.56-16.25,19.93-10.29,11.71-22.06,21.71-35.71,29.37-16.86,9.46-34.92,13.91-54.27,12.53-8.77-.63-16.99-3.05-23.78-9.02-6.78-5.96-10.09-13.76-11.26-22.46-3.5-26.07,5.76-47.23,25.53-63.94,5.01-4.24,10.98-7.34,16.49-11.01.54-.36,1.29-1.03,1.27-1.53-.24-5.86-.61-11.72-.96-17.73-11.45.43-22.75.86-34.22,1.29-.51-9.72-1.02-19.23-1.53-28.98,11.42-.44,22.72-.88,33.89-1.31v-20.93c10.74-.36,21.68-.72,33.02-1.1v20.72c28.08-1.03,55.78-2.04,83.73-3.06.51,9.66,1.01,19.23,1.53,28.99-27.92,1.09-55.68,2.18-83.34,3.26v10.45c9.89-1.12,19.48-1.05,29.06-.11,9.59.94,18.92,3.05,28.09,6.68,1.27-2.86,2.49-5.61,3.76-8.48,9.37,4.14,18.66,8.25,28.18,12.46-2.18,4.41-4.28,8.66-6.45,13.04,1.46,1.74,3.07,3.52,4.53,5.41,5.47,7.13,8.4,15.32,9.68,24.12,1.91,13.1,1.49,26.05-2.91,38.69-2.94,8.46-6.95,16.37-12.18,23.77-10.23-4.04-20.42-8.06-30.87-12.19,1.22-1.63,2.38-3.14,3.48-4.69,5.66-7.94,10.41-16.34,12.01-26.12.99-6.02,1.12-12.09-.53-18.05ZM192.25,138.51c1.63,15.27,3.26,30.42,4.89,45.71,9.21-4.09,32.22-29.94,37.07-41.35-10.82-5.49-31.66-6.69-41.96-4.37ZM165.2,192.53c-1.45-13.74-2.88-27.16-4.31-40.76-4.32,3.46-7.79,7.52-10.4,12.28-4.2,7.65-5.84,15.76-3.86,24.38.89,3.89,3.06,6.9,6.92,8.44,3.77,1.5,7.73,1.61,11.64,1.07,8.82-1.21,17.13-4.13,25.06-8.13.54-.27,1.04-.63,1.56-.95-.07-.15-.15-.3-.22-.45-8.65,1.35-17.29,2.7-26.38,4.12Z"/>
  <path class="cls-2" d="M192.25,138.51c10.3-2.33,31.14-1.12,41.96,4.37-4.85,11.41-27.85,37.26-37.07,41.35-1.64-15.3-3.26-30.45-4.89-45.71Z"/>
  <path class="cls-2" d="M165.2,192.53c9.09-1.42,17.73-2.77,26.38-4.12.07.15.15.3.22.45-.52.32-1.02.67-1.56.95-7.93,4-16.24,6.92-25.06,8.13-3.91.54-7.87.43-11.64-1.07-3.86-1.54-6.03-4.55-6.92-8.44-1.98-8.62-.34-16.73,3.86-24.38,2.61-4.75,6.08-8.82,10.4-12.28,1.44,13.59,2.86,27.02,4.31,40.76Z"/>
</svg>