<?xml version="1.0" encoding="UTF-8"?>
<svg id="_레이어_2" data-name="레이어 2" xmlns="http://www.w3.org/2000/svg" width="26.12" height="111.9" viewBox="0 0 26.12 111.9">
  <g id="_레이어_1-2" data-name="레이어 1">
    <path d="m22.39,111.9H3.73c-2.06,0-3.73-1.67-3.73-3.73V3.73C0,1.67,1.67,0,3.73,0h18.66c2.06,0,3.73,1.67,3.73,3.73v104.44c0,2.06-1.67,3.73-3.73,3.73Zm-16.91-10.96h15.16v-4.41h-7.8l2.46-2.96c1.96-2.34,3.32-4.37,4.06-6.08.74-1.72,1.11-3.32,1.11-4.8,0-1.25-.31-2.48-.92-3.69-.61-1.21-1.42-2.14-2.44-2.78-1.02-.64-2.19-.96-3.52-.96-2.15,0-3.92.78-5.29,2.32-1.37,1.55-2.11,3.68-2.22,6.38h4.06c.04-1.31.36-2.34.95-3.1.6-.76,1.34-1.14,2.23-1.14s1.6.32,2.16.95c.56.63.84,1.43.84,2.39s-.27,1.97-.81,3.13c-.54,1.15-1.63,2.68-3.26,4.57l-6.77,7.9v2.28Zm7.58-59.91c2.47,0,4.48-2,4.48-4.48s-2.01-4.48-4.48-4.48-4.48,2-4.48,4.48,2,4.48,4.48,4.48Zm-1.87,13.8c0,1.03.84,1.87,1.87,1.87s1.87-.84,1.87-1.87c0-1.03-.83-1.87-1.87-1.87s-1.87.84-1.87,1.87Zm-5.6,1.87c1.03,0,1.87-.84,1.86-1.87,0-1.03-.83-1.87-1.86-1.87s-1.87.84-1.87,1.87.84,1.87,1.87,1.87ZM5.6,2.98c-1.44,0-2.61,1.17-2.61,2.61s1.17,2.61,2.61,2.61,2.61-1.17,2.61-2.61-1.17-2.61-2.61-2.61Zm13.81,14.92h-4.48v-4.48h-3.73v4.48h-4.48v3.73h4.48v4.48h3.73v-4.48h4.48v-3.73Zm1.12,35.06c-1.03,0-1.87.84-1.87,1.87s.83,1.87,1.87,1.87,1.87-.84,1.87-1.87c0-1.03-.83-1.87-1.87-1.87Z" style="fill: #12b5ea; fill-rule: evenodd;"/>
  </g>
</svg>