<?xml version="1.0" encoding="UTF-8"?>
<svg id="_레이어_2" data-name="레이어 2" xmlns="http://www.w3.org/2000/svg" width="26.12" height="111.9" viewBox="0 0 26.12 111.9">
  <g id="_레이어_1-2" data-name="레이어 1">
    <path d="m22.39,111.9H3.73c-2.06,0-3.73-1.67-3.73-3.73V3.73C0,1.67,1.67,0,3.73,0h18.66c2.06,0,3.73,1.67,3.73,3.73v104.44c0,2.06-1.67,3.73-3.73,3.73Zm-14.67-13.39c1.34,1.47,3.07,2.21,5.19,2.21,2.24,0,4.08-.78,5.53-2.34,1.45-1.56,2.17-3.47,2.17-5.72,0-1.53-.37-2.86-1.12-4-.75-1.13-1.79-1.92-3.12-2.38,1.01-.57,1.78-1.31,2.31-2.23.53-.92.8-1.94.8-3.05,0-1.79-.61-3.35-1.82-4.65-1.21-1.31-2.72-1.96-4.51-1.96-2.01,0-3.68.78-5.01,2.35-.95,1.12-1.53,2.61-1.74,4.46h4c.18-.66.51-1.2,1-1.61.49-.42,1.03-.62,1.62-.62.67,0,1.22.22,1.64.67.42.45.62,1.01.62,1.69,0,.52-.14,1.02-.41,1.48-.27.47-.65.83-1.15,1.1-.49.27-1.24.45-2.24.54v4.09c1.63.02,2.87.43,3.73,1.21.86.78,1.29,1.74,1.29,2.88,0,1.03-.32,1.91-.96,2.62-.64.71-1.45,1.07-2.42,1.07s-1.7-.32-2.31-.94c-.61-.63-1-1.59-1.18-2.89h-4.12c.13,2.53.86,4.54,2.2,6Zm5.34-57.48c2.47,0,4.48-2,4.48-4.48s-2-4.48-4.48-4.48-4.48,2-4.48,4.48,2.01,4.48,4.48,4.48Zm-1.87,13.8c0,1.03.84,1.87,1.87,1.87s1.87-.84,1.87-1.87c0-1.03-.84-1.87-1.87-1.87s-1.87.84-1.87,1.87Zm-5.6,1.87c1.03,0,1.87-.84,1.87-1.87,0-1.03-.84-1.87-1.87-1.87s-1.87.84-1.87,1.87.84,1.87,1.87,1.87ZM5.6,2.98c-1.44,0-2.61,1.17-2.61,2.61s1.17,2.61,2.61,2.61,2.61-1.17,2.61-2.61-1.17-2.61-2.61-2.61Zm13.81,14.92h-4.48v-4.48h-3.73v4.48h-4.48v3.73h4.48v4.48h3.73v-4.48h4.48v-3.73Zm1.12,35.06c-1.03,0-1.87.84-1.87,1.87s.84,1.87,1.87,1.87,1.87-.84,1.87-1.87c0-1.03-.83-1.87-1.87-1.87Z" style="fill: #12b5ea; fill-rule: evenodd;"/>
  </g>
</svg>