<svg xmlns="http://www.w3.org/2000/svg" width="483" height="83" viewBox="0 0 4587 785"><path d="M4461 694.9V772h-15.1v-77.1H4418v-13.3h70.7v13.3z" style="fill:#000;fill-opacity:1" transform="translate(0 -.4)"/><path d="M4572.6 771.6v-74.7l-22.5 74.7h-14.7l-22.1-74.7v74.7h-13.9v-90.4h21.8l21.8 72.2 21.9-72.2h22v90.4z"/><path d="M2709.4 53.1 2624 537.6l-.3 1.8c-1.9 11.6-12.4 49.4-34.6 69.1-4.7 4-18.6 16.6-52.4 16.9-66.4.4-67.1-63.6-63.8-93.6l45.4-257.5.3-2.3-45.6 258.7 84.3-477.5h-153.9L2364.8 272v-.1l-29.1 165.6-1 5.4 30.1-170.9-.4 2.3-45.2 256.6c-6.9 29.5-29.8 95-96.8 94.6-33.8-.3-43.4-12.8-46.6-16.9-15.2-19.7-12.3-57.5-10.2-69.1l.3-1.8 85.5-484.4-153.7-1.1-85.3 484.1c-3.5 18.5-18.4 113.4 33.2 182.2 22.4 30.1 66.6 66.1 148.7 66.5 68.8.5 124.6-25.3 168.1-62.5 30.4 37.2 77.2 63 146.3 62.5 82.2-.4 138.9-36.4 172.1-66.5 76-68.8 94.4-163.7 97.5-182.2l85.3-484.1zM3140.1 757.5c-32.4 20.4-66.3 27.5-109 27.5-101.2 0-215-96.2-181.5-280.6 29.4-161.2 162.7-282.8 317-282.8 150.1 0 258 90.6 227 260.8L3341 771.6h-159.1l44.9-247.5c17.3-94.9 4-152.5-81.9-152.5-74.5 0-123.8 64.6-135.6 128.2-15 83.5 23.4 123.8 83.1 123.8 29.1 0 55.3-6.5 74.3-13.6zM3781.8 266.3c-43.4 0-82.9 11.9-119 34.4l13.7-76.2h-159l-100.1 548h159.1l53.2-291c11.5-29.6 42.7-74.1 126.5-74.1h112.7l25.5-141.1h-112.1M4041.1 498.8c-21 119.7 37.7 160.3 102 160.3 54.1 0 95.3-27.7 129.7-65.2l100.8 85c-64.8 67.4-158.9 106.1-245.1 106.1-165.5 0-278.7-110.5-248.5-281.8 30.2-171.1 163.6-281.5 329.4-281.5 132.3 0 250.9 110.4 220.8 281.5l-9.1 52h-339.8l19.8-112.6h174.1c10.9-55.2-24-101.7-83.8-101.7-72.9-.1-129.1 38.3-150.3 157.9" class="A" style="fill:#ed499a;fill-opacity:1"/><path d="M853.1 640.3c56.1 22.2 174.3 40.1 266.8 40.1 101.1 0 143-34.7 143-78.1 0-39.1-38.9-62.1-150.6-103-149.3-55-258.8-98.5-258.8-196.5 0-101.4 131.7-161.3 332.6-161.3 107.8 0 144.9 6.8 213.3 19.5l.4 96.3c-67-12.9-126.8-34.8-219.4-34.8-99.3 0-141.5 31.5-141.4 63.9 0 47.2 65 69.7 179.3 110.4 159 57 247.7 101 247.7 196.8-.3 98.8-110.9 170-360.8 170-102.7 0-173.5-6.8-252.1-19.4zM320.5 226.6H201.4v450.2h119.1c183 0 298.3-78.1 298.3-224.1.1-146-115.3-226.1-298.3-226.1m319.8 492.2c-58.9 26.5-170.2 43.4-267.8 43.4H0V142.9h372.6c97.4 0 208.8 17.2 267.8 43.6 143.3 64.7 190 168.1 190 266.2-.1 98.1-46.4 201.3-190.1 266.1M1709.6-.4c-118.6 0-214.8 96.2-214.8 214.9s96.2 214.9 214.8 214.9c118.6 0 215.2-96.2 215.2-214.9S1828.2-.4 1709.6-.4m32.3 368.9h-64.3V172.3h64.3zm-32.7-232.9c-20.7 0-37.7-16.3-37.7-36.5 0-20 17-36.3 37.7-36.3 21.7 0 38.7 16 38.7 36.3.1 20.5-17 36.5-38.7 36.5"/></svg>