<svg xmlns="http://www.w3.org/2000/svg" xml:space="preserve" width="132" height="15.6" style="enable-background:new 0 0 132 15.6"><path d="M128.7 13.5h.5V15h.3v-1.5h.5v-.3h-1.3v.3zm3.2-.3h-.4l-.2.7c-.1.2-.1.4-.2.6 0-.2-.1-.4-.2-.6l-.2-.7h-.4l-.1 1.7h.3v-1.4c0 .2.1.4.2.7l.2.7h.2l.2-.7c.1-.2.2-.4.2-.7v1.4h.3l.1-1.7z"/><path d="M68.7 8.3h-5.9c-.8 0-1.5.7-1.5 1.5V14c0 .8.7 1.5 1.5 1.5h5.9c.8 0 1.5-.7 1.5-1.5V9.8c.1-.8-.6-1.5-1.5-1.5M69 14c0 .2-.1.3-.3.3h-5.8c-.2 0-.3-.1-.3-.3V9.8c0-.2.1-.3.3-.3h5.8c.2 0 .3.1.3.3V14z" style="fill:#8c8c8c"/><path d="M23 1.4h3.2v6h1.4v-6h3.2V.1H23v1.3zm-2.9 4L14.6.1h-1.1v7.3h1.3V2l5.5 5.4h1.1V.1h-1.3v5.3zM10 7.4h1.4V.1H10v7.3zm-3.4-2L1.2.1H0v7.3h1.3V2l5.5 5.4h1.1V.1H6.6v5.3zm25.8 2h7.1V6.1h-5.8V4.3h4.5V3h-4.5V1.4h5.8V.1h-7.1v7.3zm15.7-2L42.6.1h-1.2v7.3h1.3V2l5.5 5.4h1.1V.1H48v5.3zm73.5 1c-2.9-1-4.5-1.6-4.5-2.8 0-.8 1.1-1.6 3.5-1.6 2.3 0 3.8.5 5.5.9V.5c-1.7-.3-2.6-.5-5.3-.5-5 0-8.3 1.5-8.3 4 0 2.4 2.7 3.5 6.5 4.9 2.8 1 3.8 1.6 3.8 2.6 0 1.1-1 2-3.6 2-2.3 0-5.2-.4-6.7-1v2.6c2 .3 3.7.5 6.3.5 6.2 0 9-1.8 9-4.2 0-2.5-2.2-3.6-6.2-5zm-14.4-5.2C105.7.5 103 .1 100.5.1h-9.3v15.5h9.3c2.4 0 5.2-.4 6.7-1.1 3.6-1.6 4.7-4.2 4.7-6.6.1-2.5-1.1-5.1-4.7-6.7zm-7.9 12.2h-3V2.2h3c4.6 0 7.4 2 7.4 5.6 0 3.7-2.9 5.6-7.4 5.6zM56.9.1h-5.4v7.3h5.4c.9 0 1.7-.4 2.3-1.1.5-.6.8-1.5.8-2.6 0-1-.3-1.9-.8-2.6-.6-.6-1.3-1-2.3-1zm.1 6h-4.1V1.4H57c1.3 0 1.8 1.3 1.8 2.4-.1 1.1-.6 2.3-1.8 2.3zm11.7-6h-5.9c-.8 0-1.5.7-1.5 1.5v4.2c0 .8.7 1.5 1.5 1.5h5.9c.8 0 1.5-.7 1.5-1.5V1.7c.1-.9-.6-1.6-1.5-1.6zm.3 5.8c0 .2-.1.3-.3.3h-5.8c-.2 0-.3-.1-.3-.3V1.7c0-.2.1-.3.3-.3h5.8c.2 0 .3.1.3.3v4.2z"/><path d="M84.8 7.1s4.3-.7 4.3-3.4c0-2.6-4.6-3.7-9.5-3.7-4.4 0-7.3.5-7.3.5v2.4c2-.5 3.9-.9 6.5-.9 2.8 0 4.9.8 4.9 2 0 1.4-2.1 2.2-6.7 2.2h-2v2.2h2c4.8 0 7.5.7 7.5 2.5 0 1.6-2.4 2.5-5.5 2.5-2.7 0-5.1-.6-7-1.1v2.6c1 .2 3.5.7 8.1.7 5.2 0 9.7-1.7 9.7-4.6 0-2.5-3.2-3.9-5-3.9" style="fill:#ce181e"/><path d="M0 0h127.8v15.6H0z" style="fill:none"/></svg>