<svg xmlns="http://www.w3.org/2000/svg" width="328.527" height="304.389" viewBox="0 0 500 463.264"><path d="m111.6 82.6 4.4-5V43.8l-21 8.1-17.4 31L95 76.2z" style="fill:#0222a9" transform="scale(2.4919)"/><path d="M148.9 129.7v-57l21.3-8.2v89.7l-21.3 9-31.3-40.9v54.1L95 185.9V93.5l22.6-8.6z" style="fill:#011da9" transform="scale(2.4919)"/><path d="m61.1 154.3-20-38.8v47.7z" style="fill:#0222a9" transform="scale(2.4919)"/><path d="m62.4 64.5 10 20.4 5.2-2 17.4-31-21-8.2zM111.6 82.6l16-18.1 21.3 8.2v57l-31.3-44.8z" style="fill:#069330" transform="scale(2.4919)"/><path d="M95 185.9V93.5l-22.6-8.6v46.9L41 72.7l-21.3-8.2v89.7l21.3 9v-47.7l31.4 60.9z" style="fill:#069330" transform="scale(2.4919)"/><path d="m41.1 72.7 21.3-8.2 10 20.4v46.9zM117.6 144.6l6.4 9 24.9 9.6-31.3-40.9z" style="fill:#fe2015" transform="scale(2.4919)"/><path d="m72.5 84.9 22.6-8.6 22.6 8.6-22.6 8.6zM148.9 56.3l21.3 8.2-21.3 8.2-21.3-8.2zM41.1 56.3l21.3 8.2-21.3 8.2-21.3-8.2zM95 35.6l-21 8.1 21 8.2 21-8.1z" style="fill:#ffc001" transform="scale(2.4919)"/><path d="M125.2 6.6h9.7c8.3 0 10.9 4.7 10.9 11.1 0 6.6-4.1 10.7-10.4 10.7h-10.2V6.6zm8 16.9h.8c1.3 0 2.2-.4 2.7-1.3s.6-2.6.6-4.7-.1-3.8-.6-4.7c-.5-.9-1.4-1.3-2.7-1.3h-.8v11.9zM158.6 6c7.1 0 10.7 4.7 10.7 11.5S165.8 29 158.6 29c-7.1 0-10.7-4.7-10.7-11.5S151.4 6 158.6 6zm0 17.4c1.3 0 2.2-.6 2.2-6 0-5.2-.9-6-2.2-6-1.3 0-2.2.7-2.2 6s.9 6 2.2 6zM173.1 23.8c-1.4 0-2.6 1.2-2.6 2.6 0 1.4 1.2 2.6 2.6 2.6 1.4 0 2.6-1.2 2.6-2.6 0-1.4-1.2-2.6-2.6-2.6zm0 4.7c-1.2 0-2.1-1-2.1-2.1 0-1.2 1-2.1 2.1-2.1 1.2 0 2.1 1 2.1 2.1 0 1.2-1 2.1-2.1 2.1z" style="fill:#0124a6" transform="scale(2.4919)"/><path d="M172.7 27.8h-.6V25h1.2c.5 0 1 .2 1 .7 0 .4-.2.6-.6.7.5.1.5.3.5.7 0 .2.1.5.2.7h-.7c-.1-.3-.1-.5-.1-.8 0-.2-.1-.4-.3-.4h-.6v1.1zm0-1.6h.5c.3 0 .4-.1.4-.4 0-.3-.2-.4-.4-.4h-.5v.8zM14.3 6.6v12.5h-.1L9.8 6.6H0v21.8h6.6V15.8h.1l4.4 12.6h9.8V6.6zM51.3 6.6v12.5h-.1L46.8 6.6H37v21.8h6.6V15.8h.1l4.4 12.6h9.8V6.6zM115 6.6v12.5h-.1l-4.4-12.5h-9.8v21.8h6.6V15.8h.1l4.4 12.6h9.8V6.6zM33.1 6.6v21.8h-8.2V6.6zM65.5 28.4V12.5h-5.2V6.6h18.6v5.9h-5.2v15.9zM89.4 12.4v2.3h7.5v5.6h-7.5v2.4h8.4v5.7H81.4V6.6h16.2v5.8z" style="fill:#0124a6" transform="scale(2.4919)"/><path d="M184 3.7h-1.5c-3.5.2-4.8 1.6-5.3 3.3h.1c.9-.8 1.9-1.1 3.3-1.1 2.7 0 5.2 2 5.2 5.7 0 3.6-2.7 6.4-6.4 6.4-4.9 0-7-3.7-7-7.7 0-3.2 1.1-6 3-7.7 1.8-1.7 4.1-2.5 6.9-2.6h1.6v3.7zm-4.6 10.8c1.1 0 1.8-1.1 1.8-2.6 0-1.2-.6-2.6-2.1-2.6-.9 0-1.6.6-1.9 1.3-.1.2-.1.5-.1 1 .1 1.4.8 2.9 2.3 2.9zM194.4 17.7v-3.9h-7.3v-3.1L192.9.3h5.8v10h1.8v3.6h-1.8v3.9h-4.4zm0-7.5v-3c0-1.1.1-2.3.1-3.5h-.1c-.5 1.2-1 2.3-1.6 3.5l-1.4 2.9v.1h3z" style="fill:#ff2d1e" transform="scale(2.4919)"/></svg>