<svg xmlns="http://www.w3.org/2000/svg" width="600" height="97" version="1.0"><path d="M605.269 506.657h-1.82v-7.107h-2.59v-1.521h7.008v1.52h-2.598v7.108zM617.944 506.657h-1.673v-7.22h-.021l-1.612 7.22h-1.764l-1.573-7.22h-.03v7.22h-1.677v-8.628h2.61l1.565 6.786h.022l1.538-6.786h2.615v8.628z" style="fill:#000;fill-opacity:1;fill-rule:nonzero;stroke:none" transform="translate(-71.26 -413.137)"/><path d="M0 0a.335.335 0 0 0-.337-.333h-6.445A.335.335 0 0 0-7.123 0v4.666c0 .186.152.34.341.338l6.445.002A.343.343 0 0 0 0 4.666V0zm-.278 6.406h-6.566a1.734 1.734 0 0 1-1.723-1.729V-.01c0-.945.774-1.723 1.723-1.723h6.566c.946 0 1.719.778 1.719 1.723v4.687c0 .945-.773 1.729-1.719 1.729" style="fill:#939598;fill-opacity:1;fill-rule:nonzero;stroke:none" transform="matrix(4.34452 0 0 -4.34452 337.058 87.008)"/><g style="fill:#000;fill-opacity:1"><path d="M0 0h1.283l6.095-5.927V0H8.867c-.003-.088-.003-8.05 0-8.14H7.688L1.504-2.111V-8.14H0C-.003-8.05-.003-.088 0 0" style="fill:#000;fill-opacity:1;fill-rule:nonzero;stroke:none" transform="matrix(4.34452 0 0 -4.34452 2.01 19.566)"/></g><path d="M145.404 441.872v26.198h-6.551V432.7h5.587l26.514 25.755v-25.754h6.482v35.369h-5.122l-26.91-26.198zM281.466 441.872v26.198h-6.539V432.7h5.574l26.523 25.755v-25.754h6.478v35.369h-5.122l-26.914-26.198zM127.379 432.703h1.203v35.364h-6.551v-35.364h5.348zM222.021 432.703h1.212v6.069h-15.797v29.295h-6.794v-29.295h-15.78v-6.07h37.159zM263.966 432.703h1.239v6.069H237.13l.005 7.95h21.727v6.087h-21.727l-.005 9.163h28.075v6.095h-34.557v-35.364h33.318z" style="fill:#000;fill-opacity:1;fill-rule:nonzero;stroke:none" transform="translate(-71.26 -413.137)"/><g style="fill:#000;fill-opacity:1"><path d="M0 0h-4.631v5.34H0c1.446 0 1.962-1.445 1.962-2.674C1.962 1.439 1.446 0 0 0m2.471 5.547c-.588.774-1.46 1.19-2.513 1.19h-6.042v-8.141h6.042c1.053 0 1.925.414 2.513 1.188.556.725.846 1.72.846 2.882 0 1.163-.29 2.161-.846 2.881" style="fill:#000;fill-opacity:1;fill-rule:nonzero;stroke:none" transform="matrix(4.34452 0 0 -4.34452 278.646 48.833)"/></g><g style="fill:#000;fill-opacity:1"><path d="M0 0a.338.338 0 0 0-.337-.331h-6.445A.338.338 0 0 0-7.123 0v4.67c0 .181.152.339.341.339h6.445A.344.344 0 0 0 0 4.669V0zm-.278 6.405h-6.566a1.73 1.73 0 0 1-1.723-1.729V-.01a1.73 1.73 0 0 1 1.723-1.725h6.566c.946 0 1.719.778 1.719 1.725v4.686c0 .952-.773 1.729-1.719 1.729" style="fill:#000;fill-opacity:1;fill-rule:nonzero;stroke:none" transform="matrix(4.34452 0 0 -4.34452 337.058 47.394)"/></g><g style="fill:#000;fill-opacity:1"><path d="M0 0c1.562-.619 4.861-1.115 7.438-1.115 2.82 0 3.986.967 3.986 2.179 0 1.088-1.084 1.73-4.196 2.868C3.065 5.469.012 6.683.012 9.413c0 2.829 3.67 4.498 9.273 4.498 3.009 0 4.038-.192 5.95-.541l.012-2.688c-1.873.358-3.537.972-6.119.972-2.767 0-3.948-.878-3.944-1.786 0-1.311 1.813-1.94 5-3.073 4.434-1.59 6.905-2.817 6.905-5.488-.007-2.754-3.092-4.74-10.059-4.74-2.862 0-4.837.191-7.03.539V0z" style="fill:#000;fill-opacity:1;fill-rule:nonzero;stroke:none" transform="matrix(4.34452 0 0 -4.34452 454.829 79.623)"/></g><g style="fill:#000;fill-opacity:1"><path d="M0 0h-3.325v-12.553H0c5.103 0 8.316 2.178 8.316 6.251S5.103 0 0 0m8.915-13.724c-1.643-.74-4.748-1.211-7.466-1.211H-8.938V2.337H1.449c2.717 0 5.823-.48 7.466-1.219 3.995-1.804 5.298-4.686 5.298-7.42s-1.291-5.613-5.298-7.422" style="fill:#000;fill-opacity:1;fill-rule:nonzero;stroke:none" transform="matrix(4.34452 0 0 -4.34452 390.323 29.501)"/></g><g style="fill:#000;fill-opacity:1"><path d="M0 0a5.992 5.992 0 1 1 0-11.983A5.998 5.998 0 0 1 5.999-5.99C5.999-2.682 3.308 0 0 0m.899-10.285H-.894v5.469H.899v-5.469zm-.907 6.494c-.581 0-1.052.453-1.052 1.013 0 .564.471 1.016 1.052 1.016.6 0 1.076-.445 1.076-1.016 0-.567-.476-1.013-1.076-1.013" style="fill:#000;fill-opacity:1;fill-rule:nonzero;stroke:none" transform="matrix(4.34452 0 0 -4.34452 571.937 2)"/></g></svg>