<svg xmlns="http://www.w3.org/2000/svg" xml:space="preserve" id="Layer_1" x="0" y="0" style="enable-background:new 0 0 700 200" version="1.1" viewBox="0 0 700 200"><style>.st0,.st1{fill:#fc0c18}</style><path d="M50.4 45.6c-.3 1.8-.2 3.7.2 5.7.5 2 1.1 3.8 1.7 5.4.8 1.9 1.8 3.8 2.9 5.7L67 85c.7 1.4 1.3 2.9 1.7 4.5.4 1.4.7 3.1.9 5 .2 1.9.1 4-.3 6.3L67 114c-.7 3-1.9 5.7-3.5 8-.7 1-1.5 2-2.5 2.9-1 1-2.1 1.8-3.5 2.6-1.3.8-2.8 1.4-4.5 1.8-1.7.5-3.6.7-5.7.7h-8.4c-2.1 0-3.9-.2-5.4-.7-1.5-.5-2.8-1.1-3.9-1.8s-1.9-1.6-2.6-2.6c-.7-1-1.1-1.9-1.5-2.9-.8-2.3-1-5-.7-8l4.3-24.5h13.5L38.3 114c-.1.6 0 1.2.1 1.7.2.4.4.8.8 1.2.4.4 1 .5 1.8.5h8.4c.8 0 1.5-.2 2-.5.5-.4.9-.7 1.2-1.2.3-.5.6-1.1.7-1.7l2.1-12.1c.3-1.8.2-3.7-.2-5.7-.5-2-1.1-3.8-1.7-5.4-.8-1.9-1.8-3.8-2.9-5.7L39 62.5c-.7-1.4-1.3-2.9-1.7-4.5-.4-1.4-.7-3.1-.9-5-.2-1.9-.1-4 .3-6.3L39 33.5c.7-3 1.9-5.7 3.5-8 .7-1 1.5-2 2.5-2.9 1-1 2.1-1.8 3.5-2.6 1.3-.7 2.8-1.4 4.5-1.8 1.7-.5 3.6-.7 5.7-.7h8.4c2.1 0 3.9.2 5.4.7 1.5.5 2.8 1.1 3.9 1.8 1.1.8 1.9 1.6 2.6 2.6.6 1 1.1 1.9 1.5 2.9.8 2.3 1 5 .7 8L76.9 58H63.4l4.3-24.5c.1-.6 0-1.2-.1-1.7-.2-.4-.4-.8-.8-1.2-.4-.4-1-.5-1.8-.5h-8.4c-.8 0-1.5.2-2 .5-.5.4-.9.7-1.2 1.2-.3.5-.6 1.1-.7 1.7l-2.3 12.1zM93 17.5h13.5l-17 96.5c-.1.6 0 1.2.1 1.7.2.4.4.8.8 1.2.4.4 1 .5 1.8.5h8.4c.8 0 1.5-.2 2-.5.5-.4.9-.7 1.2-1.2.3-.5.6-1.1.7-1.7l17-96.5H135L118 114c-.7 3-1.9 5.7-3.5 8-.7 1-1.5 2-2.5 2.9-1 1-2.1 1.8-3.5 2.6-1.3.8-2.8 1.4-4.5 1.8-1.7.5-3.6.7-5.7.7h-8.4c-2.1 0-3.9-.2-5.4-.7-1.5-.5-2.8-1.1-3.9-1.8s-1.9-1.6-2.6-2.6c-.7-1-1.1-1.9-1.5-2.9-.8-2.3-1-5-.7-8L93 17.5zM144.2 17.5h25.3c2.1 0 3.9.2 5.4.7 1.5.5 2.8 1.1 3.9 1.8 1.1.8 1.9 1.6 2.6 2.6.6 1 1.1 1.9 1.5 2.9.8 2.3 1 5 .7 8L178 65c-.7 3-1.9 5.7-3.5 8-.7 1-1.5 2-2.5 2.9-1 1-2.1 1.8-3.5 2.6-1.3.8-2.8 1.4-4.5 1.8-1.7.5-3.6.7-5.7.7h-11.8l2.2-12.7h11.8c.8 0 1.5-.2 2-.5.5-.4.9-.7 1.2-1.2.3-.5.6-1.1.7-1.7l5.6-31.5c.1-.6 0-1.2-.1-1.7-.2-.4-.4-.8-.8-1.2-.4-.4-1-.5-1.8-.5h-11.8l-17.6 100h-13.5l19.8-112.5zM199.9 68.4h16.9l-2.2 12.7h-16.9l-6.4 36.3h16.9l-2.2 12.7h-30.4l19.8-112.5h30.4l-2.2 12.7h-16.9l-6.8 38.1zM234.8 17.5h25.3c2.1 0 3.9.2 5.4.7 1.5.5 2.8 1.1 3.9 1.8 1.1.8 1.9 1.6 2.6 2.6.6 1 1.1 1.9 1.5 2.9.8 2.3 1 5 .7 8L268.6 65c-.4 2.1-1.2 3.9-2.6 5.5-1.4 1.6-3 3-4.8 4.2 1.4 1.2 2.5 2.6 3.3 4.2.8 1.6 1 3.4.7 5.5l-8 45.6h-13.5l8-45.6c.1-.6 0-1.2-.1-1.7-.2-.4-.4-.8-.8-1.2-.4-.4-1-.5-1.8-.5h-11.8l-8.6 48.9h-13.5l19.7-112.4zm4.5 50.9h11.8c.8 0 1.5-.2 2-.5.5-.4.9-.7 1.2-1.2.3-.5.6-1.1.7-1.7l5.6-31.5c.1-.6 0-1.2-.1-1.7-.2-.4-.4-.8-.8-1.2-.4-.4-1-.5-1.8-.5H246l-6.7 38.3zM294.2 130 314 17.5h13.5L307.7 130h-13.5zm25.4-67.5 7.9-45 7.2 67.5-7.9 45-7.2-67.5zm7.3 67.5 19.8-112.5h13.5L340.4 130h-13.5zM369.2 17.5h13.5L362.9 130h-13.5l19.8-112.5zM371.9 130l19.8-112.5h13.5L385.4 130h-13.5zm25.4-67.5 7.9-45 7.2 67.5-7.9 45-7.2-67.5zm7.2 67.5 19.8-112.5h13.5L418 130h-13.5zM446.8 17.5H480l-2.2 12.7h-9L451.2 130H436l17.6-99.8h-9l2.2-12.7zM493.5 68.4h16.9l-2.2 12.7h-16.9l-6.4 36.3h16.9l-2.2 12.7h-30.4L489 17.5h30.4l-2.2 12.7h-16.9l-6.8 38.2zM508.6 130l19.8-112.5h13.5L522.1 130h-13.5zM534 62.5l7.9-45 7.2 67.5-7.9 45-7.2-67.5zm7.2 67.5L561 17.5h13.5L554.7 130h-13.5zM583.5 17.5H610c2.1 0 3.9.2 5.4.7 1.5.5 2.8 1.1 3.9 1.8 1.1.8 1.9 1.6 2.6 2.6.6 1 1.1 1.9 1.5 2.9.8 2.3 1 5 .7 8L609.8 114c-.7 3-1.9 5.7-3.5 8-.7 1-1.5 2-2.5 2.9-1 1-2.1 1.8-3.5 2.6-1.3.8-2.8 1.4-4.5 1.8-1.7.5-3.6.7-5.7.7h-26.4l19.8-112.5zm-4.1 99.8h12.9c.8 0 1.5-.2 2-.5.5-.4.9-.7 1.2-1.2.3-.5.6-1.1.7-1.7l14.2-80.4c.1-.6 0-1.2-.1-1.7-.2-.4-.4-.8-.8-1.2-.4-.4-1-.5-1.8-.5h-12.9l-15.4 87.2zM633 33.5c.7-3 1.9-5.7 3.5-8 .7-1 1.5-2 2.5-2.9 1-1 2.1-1.8 3.5-2.6 1.3-.7 2.8-1.4 4.5-1.8 1.7-.5 3.6-.7 5.7-.7h8.4c2.1 0 3.9.2 5.4.7 1.5.5 2.8 1.1 3.9 1.8 1.1.8 1.9 1.6 2.6 2.6.6 1 1.1 1.9 1.5 2.9.8 2.3 1 5 .7 8L661 114c-.7 3-1.9 5.7-3.5 8-.7 1-1.5 2-2.5 2.9-1 1-2.1 1.8-3.5 2.6-1.3.8-2.8 1.4-4.5 1.8-1.7.5-3.6.7-5.7.7h-8.4c-2.1 0-3.9-.2-5.4-.7-1.5-.5-2.8-1.1-3.9-1.8s-1.9-1.6-2.6-2.6c-.7-1-1.1-1.9-1.5-2.9-.8-2.3-1-5-.7-8L633 33.5zm-.7 80.5c-.1.6 0 1.2.1 1.7.2.4.4.8.8 1.2.4.4 1 .5 1.8.5h8.4c.8 0 1.5-.2 2-.5.5-.4.9-.7 1.2-1.2.3-.5.6-1.1.7-1.7l14.2-80.4c.1-.6 0-1.2-.1-1.7-.2-.4-.4-.8-.8-1.2-.4-.4-1-.5-1.8-.5h-8.4c-.8 0-1.5.2-2 .5-.5.4-.9.7-1.2 1.2-.3.5-.6 1.1-.7 1.7L632.3 114z" class="st0"/><path d="M50.4 45.6c-.3 1.8-.2 3.7.2 5.7.5 2 1.1 3.8 1.7 5.4.8 1.9 1.8 3.8 2.9 5.7L67 85c.7 1.4 1.3 2.9 1.7 4.5.4 1.4.7 3.1.9 5 .2 1.9.1 4-.3 6.3L67 114c-.7 3-1.9 5.7-3.5 8-.7 1-1.5 2-2.5 2.9-1 1-2.1 1.8-3.5 2.6-1.3.8-2.8 1.4-4.5 1.8-1.7.5-3.6.7-5.7.7h-8.4c-2.1 0-3.9-.2-5.4-.7-1.5-.5-2.8-1.1-3.9-1.8s-1.9-1.6-2.6-2.6c-.7-1-1.1-1.9-1.5-2.9-.8-2.3-1-5-.7-8l4.3-24.5h13.5L38.3 114c-.1.6 0 1.2.1 1.7.2.4.4.8.8 1.2.4.4 1 .5 1.8.5h8.4c.8 0 1.5-.2 2-.5.5-.4.9-.7 1.2-1.2.3-.5.6-1.1.7-1.7l2.1-12.1c.3-1.8.2-3.7-.2-5.7-.5-2-1.1-3.8-1.7-5.4-.8-1.9-1.8-3.8-2.9-5.7L39 62.5c-.7-1.4-1.3-2.9-1.7-4.5-.4-1.4-.7-3.1-.9-5-.2-1.9-.1-4 .3-6.3L39 33.5c.7-3 1.9-5.7 3.5-8 .7-1 1.5-2 2.5-2.9 1-1 2.1-1.8 3.5-2.6 1.3-.7 2.8-1.4 4.5-1.8 1.7-.5 3.6-.7 5.7-.7h8.4c2.1 0 3.9.2 5.4.7 1.5.5 2.8 1.1 3.9 1.8 1.1.8 1.9 1.6 2.6 2.6.6 1 1.1 1.9 1.5 2.9.8 2.3 1 5 .7 8L76.9 58H63.4l4.3-24.5c.1-.6 0-1.2-.1-1.7-.2-.4-.4-.8-.8-1.2-.4-.4-1-.5-1.8-.5h-8.4c-.8 0-1.5.2-2 .5-.5.4-.9.7-1.2 1.2-.3.5-.6 1.1-.7 1.7l-2.3 12.1zM93 17.5h13.5l-17 96.5c-.1.6 0 1.2.1 1.7.2.4.4.8.8 1.2.4.4 1 .5 1.8.5h8.4c.8 0 1.5-.2 2-.5.5-.4.9-.7 1.2-1.2.3-.5.6-1.1.7-1.7l17-96.5H135L118 114c-.7 3-1.9 5.7-3.5 8-.7 1-1.5 2-2.5 2.9-1 1-2.1 1.8-3.5 2.6-1.3.8-2.8 1.4-4.5 1.8-1.7.5-3.6.7-5.7.7h-8.4c-2.1 0-3.9-.2-5.4-.7-1.5-.5-2.8-1.1-3.9-1.8s-1.9-1.6-2.6-2.6c-.7-1-1.1-1.9-1.5-2.9-.8-2.3-1-5-.7-8L93 17.5zM144.2 17.5h25.3c2.1 0 3.9.2 5.4.7 1.5.5 2.8 1.1 3.9 1.8 1.1.8 1.9 1.6 2.6 2.6.6 1 1.1 1.9 1.5 2.9.8 2.3 1 5 .7 8L178 65c-.7 3-1.9 5.7-3.5 8-.7 1-1.5 2-2.5 2.9-1 1-2.1 1.8-3.5 2.6-1.3.8-2.8 1.4-4.5 1.8-1.7.5-3.6.7-5.7.7h-11.8l2.2-12.7h11.8c.8 0 1.5-.2 2-.5.5-.4.9-.7 1.2-1.2.3-.5.6-1.1.7-1.7l5.6-31.5c.1-.6 0-1.2-.1-1.7-.2-.4-.4-.8-.8-1.2-.4-.4-1-.5-1.8-.5h-11.8l-17.6 100h-13.5l19.8-112.5zM199.9 68.4h16.9l-2.2 12.7h-16.9l-6.4 36.3h16.9l-2.2 12.7h-30.4l19.8-112.5h30.4l-2.2 12.7h-16.9l-6.8 38.1zM234.8 17.5h25.3c2.1 0 3.9.2 5.4.7 1.5.5 2.8 1.1 3.9 1.8 1.1.8 1.9 1.6 2.6 2.6.6 1 1.1 1.9 1.5 2.9.8 2.3 1 5 .7 8L268.6 65c-.4 2.1-1.2 3.9-2.6 5.5-1.4 1.6-3 3-4.8 4.2 1.4 1.2 2.5 2.6 3.3 4.2.8 1.6 1 3.4.7 5.5l-8 45.6h-13.5l8-45.6c.1-.6 0-1.2-.1-1.7-.2-.4-.4-.8-.8-1.2-.4-.4-1-.5-1.8-.5h-11.8l-8.6 48.9h-13.5l19.7-112.4zm4.5 50.9h11.8c.8 0 1.5-.2 2-.5.5-.4.9-.7 1.2-1.2.3-.5.6-1.1.7-1.7l5.6-31.5c.1-.6 0-1.2-.1-1.7-.2-.4-.4-.8-.8-1.2-.4-.4-1-.5-1.8-.5H246l-6.7 38.3zM294.2 130 314 17.5h13.5L307.7 130h-13.5zm25.4-67.5 7.9-45 7.2 67.5-7.9 45-7.2-67.5zm7.3 67.5 19.8-112.5h13.5L340.4 130h-13.5zM369.2 17.5h13.5L362.9 130h-13.5l19.8-112.5zM371.9 130l19.8-112.5h13.5L385.4 130h-13.5zm25.4-67.5 7.9-45 7.2 67.5-7.9 45-7.2-67.5zm7.2 67.5 19.8-112.5h13.5L418 130h-13.5zM446.8 17.5H480l-2.2 12.7h-9L451.2 130H436l17.6-99.8h-9l2.2-12.7zM493.5 68.4h16.9l-2.2 12.7h-16.9l-6.4 36.3h16.9l-2.2 12.7h-30.4L489 17.5h30.4l-2.2 12.7h-16.9l-6.8 38.2zM508.6 130l19.8-112.5h13.5L522.1 130h-13.5zM534 62.5l7.9-45 7.2 67.5-7.9 45-7.2-67.5zm7.2 67.5L561 17.5h13.5L554.7 130h-13.5zM583.5 17.5H610c2.1 0 3.9.2 5.4.7 1.5.5 2.8 1.1 3.9 1.8 1.1.8 1.9 1.6 2.6 2.6.6 1 1.1 1.9 1.5 2.9.8 2.3 1 5 .7 8L609.8 114c-.7 3-1.9 5.7-3.5 8-.7 1-1.5 2-2.5 2.9-1 1-2.1 1.8-3.5 2.6-1.3.8-2.8 1.4-4.5 1.8-1.7.5-3.6.7-5.7.7h-26.4l19.8-112.5zm-4.1 99.8h12.9c.8 0 1.5-.2 2-.5.5-.4.9-.7 1.2-1.2.3-.5.6-1.1.7-1.7l14.2-80.4c.1-.6 0-1.2-.1-1.7-.2-.4-.4-.8-.8-1.2-.4-.4-1-.5-1.8-.5h-12.9l-15.4 87.2zM633 33.5c.7-3 1.9-5.7 3.5-8 .7-1 1.5-2 2.5-2.9 1-1 2.1-1.8 3.5-2.6 1.3-.7 2.8-1.4 4.5-1.8 1.7-.5 3.6-.7 5.7-.7h8.4c2.1 0 3.9.2 5.4.7 1.5.5 2.8 1.1 3.9 1.8 1.1.8 1.9 1.6 2.6 2.6.6 1 1.1 1.9 1.5 2.9.8 2.3 1 5 .7 8L661 114c-.7 3-1.9 5.7-3.5 8-.7 1-1.5 2-2.5 2.9-1 1-2.1 1.8-3.5 2.6-1.3.8-2.8 1.4-4.5 1.8-1.7.5-3.6.7-5.7.7h-8.4c-2.1 0-3.9-.2-5.4-.7-1.5-.5-2.8-1.1-3.9-1.8s-1.9-1.6-2.6-2.6c-.7-1-1.1-1.9-1.5-2.9-.8-2.3-1-5-.7-8L633 33.5zm-.7 80.5c-.1.6 0 1.2.1 1.7.2.4.4.8.8 1.2.4.4 1 .5 1.8.5h8.4c.8 0 1.5-.2 2-.5.5-.4.9-.7 1.2-1.2.3-.5.6-1.1.7-1.7l14.2-80.4c.1-.6 0-1.2-.1-1.7-.2-.4-.4-.8-.8-1.2-.4-.4-1-.5-1.8-.5h-8.4c-.8 0-1.5.2-2 .5-.5.4-.9.7-1.2 1.2-.3.5-.6 1.1-.7 1.7L632.3 114zM232.5 164.8h7.2l-.4-17.6-6.8 17.6zM176 146.9c-.7-.1-1.5-.2-2.4-.2h-2.9l-1.9 10.7h2.9c2 0 3.5-.4 4.5-1.1 1.2-.9 2-2.4 2.3-4.4.3-1.9.1-3.2-.6-4-.5-.5-1.1-.8-1.9-1zm-151.5-9.4v45h651v-45h-651zm28.4 9.5h-10L41 157.4h9.4l-.7 3.8h-9.4l-1.9 11H49l-.7 3.8H33.2l5.8-33h14.6l-.7 4zm30.3 29.1h-6.7l-3.6-22.9c0-.4-.2-1.6-.4-3.7-.1-1.2-.2-2.2-.3-2.9l-.2 1.1-.2.9-.2 1.4-.4 2.1-4.2 24h-4.1l5.8-33h7.1l3.1 19.6c.6 4.6 1 7.8 1.2 9.7.1-.7.2-1.7.3-3.1.3-2 .4-3.1.5-3.4l4-22.8H89l-5.8 33zM122 147h-7.7l-5.1 29.1h-4.5l5.1-29.1h-7.6l.7-3.9h19.9l-.8 3.9zm28.7 0h-10l-1.8 10.4h9.4l-.7 3.8h-9.4l-1.9 11h10.6l-.7 3.8H131l5.8-33h14.6l-.7 4zm32.4 4.6c-.5 2.7-1.5 4.7-3.2 5.9-.9.7-2.2 1.2-3.8 1.6 1 .3 1.8.5 2.3.8 1.1.6 1.6 1.9 1.6 3.8 0 1.3-.2 3.5-.6 6.5-.2 2-.3 3.5-.1 4.4.1.5.2.9.3 1.4h-5.1c-.1-.6-.2-1.2-.2-1.9 0-.4.2-1.9.4-4.4.3-3.3.4-5.5.4-6.4-.1-.8-.5-1.4-1.1-1.7-.5-.3-1.1-.5-1.7-.6-.5-.1-1.2-.1-2-.1h-2.2l-2.6 15H161l5.8-33h8.3c2.2 0 3.9.2 4.9.5 2.8 1.2 3.9 3.9 3.1 8.2zm35-4.6h-7.7l-5.1 29.1h-4.5l5.1-29.1h-7.6l.7-3.9h19.9l-.8 3.9zm22.1 29.1-.2-7.5h-8.8l-2.9 7.5h-4.4l13.4-33h6l1.8 33h-4.9zm23.9 0h-4.5l5.8-33h4.5l-5.8 33zm35.5 0h-6.7l-3.6-22.9c0-.4-.2-1.6-.4-3.7-.1-1.2-.2-2.2-.3-2.9l-.2 1.1-.2.9-.2 1.4-.4 2.1-4.2 24h-4.1l5.8-33h7.1l3.1 19.6c.6 4.6 1 7.8 1.2 9.7.1-.7.2-1.7.3-3.1.3-2 .4-3.1.5-3.4l4-22.8h4.1l-5.8 33zm41.9 0h-3.9l5-28.3-12 28.3h-4.5l-2-28.3-5 28.3h-3.9l5.8-33h7.5l1.6 25.3 9.7-25.3h7.5l-5.8 33zm35.4-29.1h-10l-1.8 10.4h9.4l-.7 3.8h-9.4l-1.9 11H373l-.7 3.8h-15.2l5.8-33h14.6l-.6 4zm30.3 29.1h-6.7l-3.6-22.9c0-.4-.2-1.6-.4-3.7-.1-1.2-.2-2.2-.3-2.9l-.2 1.1-.2.9-.2 1.4-.4 2.1-4.2 24h-4.1l5.8-33h7.1l3.1 19.6c.6 4.6 1 7.8 1.2 9.7.1-.7.2-1.7.3-3.1.3-2 .4-3.1.5-3.4l4-22.8h4.1l-5.8 33zM446 147h-7.7l-5.1 29.1h-4.5l5.1-29.1h-7.6l.7-3.9h19.9l-.8 3.9zm51.6 4.6c0 .1-.1.5-.2 1h-4.6c.1-.5.1-.8.2-.9.2-1.1.2-1.9.2-2.4-.3-2-1.5-3-3.8-3-1.5 0-2.7.5-3.6 1.4-.8.8-1.3 1.8-1.5 3.1-.2 1.2-.1 2.1.3 2.9.5 1.1 1.4 2 2.8 2.8l2.7 1.6c2.4 1.5 4 3 4.7 4.5.6 1.3.7 3 .3 5.1-.5 3-1.9 5.3-4 6.9-1.9 1.4-4.2 2-7.1 2-3.3 0-5.7-.8-7-2.4-1.3-1.5-1.6-3.9-1.1-7.1.1-.3.2-.9.4-1.9h4.6c-.1.6-.2 1.1-.3 1.3-.3 1.8-.3 3.2 0 4.2.5 1.5 1.8 2.2 3.9 2.2 1.9 0 3.3-.6 4.3-1.7.8-.9 1.4-2 1.6-3.4.3-1.6 0-2.9-.9-4-.7-.8-1.9-1.8-3.8-2.9-1.9-1.1-3.4-2.2-4.4-3.2-1.6-1.6-2.2-3.8-1.6-6.8.5-2.8 1.7-4.9 3.6-6.4 1.8-1.4 4.1-2 6.8-2 3.1 0 5.3.8 6.6 2.4 1.1 1.5 1.4 3.7.9 6.7zm23.2 10.8-2.4 13.7h-4.5l2.4-13.7-4.1-19.3h5.2l2.3 14.5 7.6-14.5h4.5l-11 19.3zm41-10.8c0 .1-.1.5-.2 1H557c.1-.5.1-.8.2-.9.2-1.1.2-1.9.2-2.4-.3-2-1.5-3-3.8-3-1.5 0-2.7.5-3.6 1.4-.8.8-1.3 1.8-1.5 3.1-.2 1.2-.1 2.1.3 2.9.5 1.1 1.4 2 2.8 2.8l2.7 1.6c2.4 1.5 4 3 4.7 4.5.6 1.3.7 3 .3 5.1-.5 3-1.9 5.3-4 6.9-1.9 1.4-4.2 2-7.1 2-3.3 0-5.7-.8-7-2.4-1.3-1.5-1.6-3.9-1.1-7.1.1-.3.2-.9.4-1.9h4.6c-.1.6-.2 1.1-.3 1.3-.3 1.8-.3 3.2 0 4.2.5 1.5 1.8 2.2 3.9 2.2 1.9 0 3.3-.6 4.3-1.7.8-.9 1.4-2 1.6-3.4.3-1.6 0-2.9-.9-4-.7-.8-1.9-1.8-3.8-2.9-1.9-1.1-3.4-2.2-4.4-3.2-1.6-1.6-2.2-3.8-1.6-6.8.5-2.8 1.7-4.9 3.6-6.4 1.8-1.4 4.1-2 6.8-2 3.1 0 5.3.8 6.6 2.4 1.1 1.5 1.5 3.7.9 6.7zm34.5-4.6h-7.7l-5.1 29.1H579l5.1-29.1h-7.6l.7-3.9H597l-.7 3.9zm28.8 0h-10l-1.8 10.4h9.4l-.7 3.8h-9.4l-1.9 11h10.6l-.7 3.8h-15.2l5.8-33h14.6l-.7 4zm36.9 29.1h-3.9l5-28.3-12 28.3h-4.5l-2-28.3-5 28.3h-3.9l5.8-33h7.5l1.6 25.3 9.7-25.3h7.5l-5.8 33z" class="st1"/></svg>